<?xml version="1.0" encoding="UTF-8" standalone="no"?>
<!DOCTYPE svg PUBLIC "-//W3C//DTD SVG 1.1//EN" "http://www.w3.org/Graphics/SVG/1.1/DTD/svg11.dtd">
<svg width="100%" height="100%" viewBox="0 0 1021 1000" version="1.1" xmlns="http://www.w3.org/2000/svg" xmlns:xlink="http://www.w3.org/1999/xlink" xml:space="preserve" xmlns:serif="http://www.serif.com/" style="fill-rule:evenodd;clip-rule:evenodd;stroke-linejoin:round;stroke-miterlimit:2;">
    <g>
        <g>
            <path d="M836.725,415.386C839.23,401.748 840.495,387.837 840.495,373.828C840.495,247.818 737.989,145.312 611.979,145.312C531.542,145.312 456.983,188.16 416.021,256.248C360.727,238.322 303.994,246.008 257.255,278.217C210.516,310.401 182.62,361.356 180.364,417.072C118.92,446.256 77.083,508.393 77.083,576.953C77.083,588.855 79.966,600.46 82.172,611.716L82.197,611.742C98.613,694.583 171.933,754.687 256.51,754.687L764.323,754.687C862.315,754.687 943.75,674.946 943.75,576.953C943.75,507.65 901.343,445.264 836.725,415.386Z" style="fill:white;fill-rule:nonzero;"/>
        </g>
    </g>
    <path d="M605.424,643.723C605.424,643.723 593.121,629.008 582.868,616.005C627.638,603.344 644.725,575.284 644.725,575.284C630.713,584.523 617.385,591.025 605.424,595.473C588.336,602.659 571.932,607.45 555.87,610.188C523.062,616.347 492.987,614.636 467.356,609.846C447.876,606.081 431.13,600.606 417.118,595.131C409.258,592.051 400.714,588.287 392.17,583.497C391.145,582.812 390.12,582.47 389.095,581.786C388.411,581.443 388.069,581.101 387.728,580.759C381.576,577.337 378.159,574.942 378.159,574.942C378.159,574.942 394.563,602.317 437.965,615.321C427.713,628.324 415.068,643.723 415.068,643.723C339.541,641.327 310.833,591.709 310.833,591.709C310.833,481.523 360.046,392.21 360.046,392.21C409.258,355.254 456.078,356.28 456.078,356.28L459.496,360.386C397.98,378.181 369.615,405.214 369.615,405.214C369.615,405.214 377.133,401.107 389.778,395.29C426.346,379.207 455.395,374.759 467.356,373.732C469.406,373.39 471.115,373.048 473.166,373.048C494.013,370.31 517.593,369.626 542.2,372.363C574.666,376.127 609.525,385.709 645.067,405.214C645.067,405.214 618.069,379.549 559.971,361.755L564.755,356.28C564.755,356.28 611.575,355.254 660.788,392.21C660.788,392.21 710,481.523 710,591.709C710,591.709 680.951,641.327 605.424,643.723Z" style="fill:rgb(114,137,218);fill-rule:nonzero;"/>
    <path d="M448.047,483.294C428.567,483.294 413.188,500.403 413.188,521.277C413.188,542.151 428.909,559.261 448.047,559.261C467.527,559.261 482.906,542.151 482.906,521.277C483.247,500.403 467.527,483.294 448.047,483.294ZM572.786,483.294C553.307,483.294 537.928,500.403 537.928,521.277C537.928,542.151 553.648,559.261 572.786,559.261C592.266,559.261 607.645,542.151 607.645,521.277C607.645,500.403 592.266,483.294 572.786,483.294Z" style="fill:white;fill-rule:nonzero;"/>
</svg>
