<svg xmlns="http://www.w3.org/2000/svg" xmlns:xlink="http://www.w3.org/1999/xlink" viewBox="0 0 755.15 402.8"><defs><linearGradient id="a" x1="-1.28" y1="157.14" x2="731.73" y2="157.14" gradientUnits="userSpaceOnUse"><stop offset="0" stop-color="#9dfe8a"/><stop offset="1" stop-color="#1fd0e2"/></linearGradient><linearGradient id="b" x1="-1.28" y1="224.64" x2="731.73" y2="224.64" xlink:href="#a"/></defs><g data-name="Layer 2"><g data-name="Layer 1"><path d="M94.51 189.67q46.09-5.67 78.29-17.52T225 145.1q20-15.22 28.77-32.76t8-34.47a66.71 66.71 0 00-10.1-32.19 86.38 86.38 0 00-25.14-26.1Q210.7 8.72 189.18 3.39t-47.05-2.28q-14.48 1.52-31 4t-33.57 6.66A293 293 0 0044 22.25a139.77 139.77 0 00-30.25 15.81Q6.51 43 3.09 52.91A50.78 50.78 0 000 71.77q.37 9 3.81 14.1t9.9.57A205.71 205.71 0 0145 68.34a222.73 222.73 0 0131.81-12A292.26 292.26 0 01108 49.11q15.42-2.67 29.52-4.19 21.33-2.3 38.66 1.71T204 59q10.5 8.4 12 20.2t-8.73 24.8q-10.29 13-34.28 26.1t-65.15 24.19A450.67 450.67 0 01131.27 108q12.38-21.13 23.43-34.47 1.91-5-3-9a36.67 36.67 0 00-12.38-6.28 50.69 50.69 0 00-15-2.29q-7.64 0-11 3a224.44 224.44 0 00-20.71 29.38 346.27 346.27 0 00-19.43 37.72Q64 146.63 56.42 169.48a379 379 0 00-12.19 45.72A293.3 293.3 0 0038.7 260a170.94 170.94 0 002.86 41q0 6.09 5.72 9.52A27.21 27.21 0 0060 314.24 29.76 29.76 0 0073.37 312q6.28-2.67 7-8.77-5.34-23.61-.76-53.52a347.21 347.21 0 0114.9-60.04z" fill="url(#a)"/><path d="M754.28 96.34q-1.51-3.42-6.47-4.19H744l4.19-9.15q4.95-12.2 3.43-21.14T745 49.11q-5.15-3.81-12.38-2.1t-13.38 10.86a129.57 129.57 0 00-7.43 12.19q-5.14 9.14-11.62 22.47h-8.76a16.26 16.26 0 00-7 5 18.16 18.16 0 00-3.81 7.23 14.09 14.09 0 000 7.24c.63 2.29 2.35 3.81 5.14 4.57h3.81q-4.18 8.77-7.23 17.14l-7.24 17.91q-4.57 11.8-9.52 24.19t-9.34 24.38c-.4 1.09-.78 2.15-1.16 3.22q-7.53 12.78-15.59 25.73a229.6 229.6 0 01-16.58 23.43q-8.37 10.29-17.14 15.62t-17.9 2.28a5.73 5.73 0 01-4.19-3.62 18.83 18.83 0 01-1.15-7v-1.15q16.38-6.85 32.77-21.33a128.81 128.81 0 0026.66-32.38 71.92 71.92 0 006.67-15.62 57.64 57.64 0 002.47-16.38q0-12.18-5.71-20.38t-19.43-8.95a44 44 0 00-25.14 6.09 81.61 81.61 0 00-21.52 18.48 147.07 147.07 0 00-17.53 26.67q-1.87 3.63-3.62 7.27c-.25.3-.5.59-.75.92q-7.69 12.91-15.86 26.01A231.16 231.16 0 01525 252.53q-8.38 10.29-17.15 15.62t-17.9 2.28a5.73 5.73 0 01-4.19-3.62 19 19 0 01-1.14-7v-1.15q16.37-6.85 32.76-21.33A128.59 128.59 0 00544 204.91a71 71 0 006.67-15.62 57.66 57.66 0 002.48-16.38q0-12.18-5.72-20.38T528 143.58a44 44 0 00-25.14 6.09 81.61 81.61 0 00-21.52 18.48 146.51 146.51 0 00-17.52 26.67q-1.23 2.35-2.38 4.72a29.24 29.24 0 00-3.14 4.23q-4.2 7.24-9.15 16.38t-11.62 19.24a231.18 231.18 0 01-15 20.19 146.78 146.78 0 01-19.43 19.23l.38-1.9c.51-1.27 1.33-3.87 2.48-7.81s2.6-8.57 4.38-13.91 3.74-11.1 5.9-17.33 4.51-12.38 7.05-18.47q3.42-8 6.86-15.43t6.47-13.33q3-5.91 5.15-10.29t2.85-5.9q4.57-11.81 1.34-19.24t-9.72-9.72q-6.48-2.28-13.9.77t-11.62 12.19a105.17 105.17 0 00-10.86 20.38q-4.77 11.63-8.95 24.57-5.72 9.53-11.62 19.62t-12.19 19.42a168.86 168.86 0 01-13.14 17.15 76.62 76.62 0 01-14.1 12.76c-1.52.51-2-1-1.33-4.57a108.12 108.12 0 014-14.48q3-9.14 7.43-20.38t8.95-22.09q4.58-10.86 8.95-19.62t7.05-13.34q5.72-9.13 4.19-17.14t-7.1-12.38a17.56 17.56 0 00-13.14-3.62q-7.62.76-13.71 8.76-3.82 5.34-9.34 17.34T325 198.24c-1.15 3.3-2.25 6.68-3.34 10.08l-14.75 24.59a180 180 0 01-20.76 28.38q-11.43 12.19-13.34 9.9t3.81-18.66q3-9.15 7.43-20.38t9-21.72q4.57-10.47 8.76-19.23t6.86-13.34q5.72-9.13 4.19-17.14t-7.05-12.38a17.56 17.56 0 00-13.14-3.62q-7.62.76-13.33 8.76l-1.21 1.52q-5.72-7.62-13.34-9.91a46.6 46.6 0 00-22.09 5 93.5 93.5 0 00-21.52 14.66 133.43 133.43 0 00-19.62 22.1 189.55 189.55 0 00-16 26.66 163.94 163.94 0 00-10.86 28.19 100.92 100.92 0 00-4 27.24q0 12.57 5.33 20.76t17.91 11.24q14.85 2.65 26.47-4.38t21.53-20.38a35.07 35.07 0 004.95 16.19 19.19 19.19 0 0012.57 8.57q11.81 2.28 22.86-5.72a104.06 104.06 0 0021.14-21.14q2.32-3 4.61-6.24a50.33 50.33 0 002.43 19q3.81 11.43 14.86 14.1 12.57 2.28 24-6.29A106.38 106.38 0 00371.07 272a1.78 1.78 0 01-.19.76 1.64 1.64 0 00-.19.76q-2.28 7.62-4.57 15a128.93 128.93 0 01-5.34 14.28A93.49 93.49 0 00336 318.05q-9.9 8.76-20.95 18.29-9.52 7.61-13.71 16.19a36 36 0 00-4 16.76 33.06 33.06 0 004.19 15.43 34 34 0 0010.66 11.8 36.65 36.65 0 0015.43 5.91 38.78 38.78 0 0018.67-2.1 48.3 48.3 0 0020.38-12.76 91.49 91.49 0 0014.86-20.95A149.65 149.65 0 00392.21 340q4.38-14.65 7.81-30.28 5.72-4.95 10.29-8.76t8.95-7.43a85.91 85.91 0 008.57-8.19q4.19-4.57 9.53-11.43 3.7-4.65 7.43-9.84 2.34 31.69 32.94 38a40.85 40.85 0 0027.81-2.86 85.28 85.28 0 0024.38-18.28 159.42 159.42 0 0012.88-15.43q2.93 30.38 32.83 36.57a40.85 40.85 0 0027.81-2.86 85.28 85.28 0 0024.38-18.28 159.44 159.44 0 0012.59-15q.09 4.63.54 9.52a51 51 0 002.29 11.23 27 27 0 005.14 9.14 15.69 15.69 0 009.15 5.15q11.79 2.28 22.85-5.34a93.64 93.64 0 0021-20.57A228 228 0 00720 246.05q8.76-16 15.62-30.85 2.65-7.62 2.47-12.77c-.13-3.42-1-5.71-2.47-6.85s-3.56-1.08-6.1.19-5.08 4.19-7.62 8.76q-8.76 14.85-17.9 30.67a131 131 0 01-20.57 27.23c-2.8 3.05-5.14 5.47-7 7.24s-3.24 2.67-4 2.67-1-1.15-.57-3.43a87 87 0 013.24-11.43q3.8-11.81 10.28-29.9t14.1-37.53q7.62-20.18 16.19-38.09t17-36.19h9.52a11.76 11.76 0 008.19-4 19.32 19.32 0 004.39-7.81 11.08 11.08 0 00-.49-7.62zM589 230.05a146.85 146.85 0 0111.24-23.42 179 179 0 0112.95-19.24c4.19-5.34 7.81-9 10.86-11s4.57-1.52 4.57 1.52a22.23 22.23 0 01-1.14 5.34 65.93 65.93 0 01-4.2 9.9h.39a146.6 146.6 0 01-16.19 21.71 97.48 97.48 0 01-18.86 16.39 2.87 2.87 0 01.38-1.2zm-97.9 0a146.85 146.85 0 0111.24-23.42 179 179 0 0112.95-19.24c4.19-5.34 7.81-9 10.86-11s4.57-1.52 4.57 1.52a22.23 22.23 0 01-1.14 5.34 65.69 65.69 0 01-4.19 9.9h.38a146.6 146.6 0 01-16.19 21.71 97.48 97.48 0 01-18.86 16.39 3 3 0 01.34-1.2zm-227.6-49.52c-.38 2-.83 4.13-1.33 6.29s-.9 4-1.15 5.52a68.73 68.73 0 00-3.23 8.57c-.9 2.92-1.85 5.91-2.86 9q-5.34 13.72-11.24 25.91a181.23 181.23 0 01-12 21.33 69.79 69.79 0 01-11.81 14.09q-5.72 5-10.28 4.2c-1.28-.25-2.48-2.1-3.62-5.53s-.7-8.44 1.33-15.05a207.17 207.17 0 0110.29-27.61 271.16 271.16 0 0114.66-28.57 107.51 107.51 0 0115.74-21.2q8-8 14.48-5.71a5.32 5.32 0 011.33 3.43 20.12 20.12 0 01-.35 5.33zm80.37 180.38a41.44 41.44 0 01-15 12.38q-5.71 3-8 2.47a2.45 2.45 0 01-2.1-2.85 13.08 13.08 0 012.48-5.72 25.88 25.88 0 015.71-6.09q7.62-5 14.67-9.72t13.9-9.71a111.13 111.13 0 01-11.7 19.24z" fill="url(#b)"/><text transform="translate(433.5 369.16)" font-size="35.67" fill="#fff" font-family="Heebo-Light,Heebo Light" font-weight="300">Easy transfer</text></g></g></svg>