<?xml version="1.0" encoding="UTF-8" standalone="no"?><!DOCTYPE svg PUBLIC "-//W3C//DTD SVG 1.1//EN" "http://www.w3.org/Graphics/SVG/1.1/DTD/svg11.dtd"><svg width="100%" height="100%" viewBox="0 0 2225 2096" version="1.1" xmlns="http://www.w3.org/2000/svg" xmlns:xlink="http://www.w3.org/1999/xlink" xml:space="preserve" xmlns:serif="http://www.serif.com/" style="fill-rule:evenodd;clip-rule:evenodd;stroke-linejoin:round;stroke-miterlimit:2;">
<defs><radialGradient id="_Radial1" cx="0" cy="0" r="1" gradientUnits="userSpaceOnUse" gradientTransform="matrix(2117.02,-2014.25,2014.25,2117.02,-23.6757,2096.22)"><stop offset="0" style="stop-color:#011345;stop-opacity:1"/><stop offset="1" style="stop-color:#052c5a;stop-opacity:1"/></radialGradient><linearGradient id="_Linear2" x1="0" y1="0" x2="1" y2="0" gradientUnits="userSpaceOnUse" gradientTransform="matrix(3615.06,0,0,3615.06,460.618,1041.67)"><stop offset="0" style="stop-color:#9dfe8a;stop-opacity:1"/><stop offset="1" style="stop-color:#1fd0e2;stop-opacity:1"/><stop offset="1" style="stop-color:#1fd0e2;stop-opacity:1"/></linearGradient></defs>


<path d="M255.779,0c-138.096,0 -250.05,111.954 -250.05,250.054l0,1583.23c0,138.1 111.954,250.054 250.05,250.054l1713.44,0c138.096,0 250.05,-111.954 250.05,-250.054l-0,-1583.23c-0,-138.1 -111.954,-250.054 -250.05,-250.054l-1713.44,0Z" style="fill:url(#_Radial1);fill-rule:nonzero;"/><path d="M1167.87,272.125c-47.613,5.021 -98.63,11.596 -153.117,19.729c-54.479,8.159 -109.608,19.108 -165.325,32.875c-55.746,13.796 -110.846,31 -165.325,51.667c-54.492,20.662 -104.271,46.675 -149.362,77.967c-23.809,16.291 -41.33,40.716 -52.605,73.266c-11.275,32.588 -16.291,63.588 -15.029,93c1.233,29.442 7.517,52.609 18.783,69.517c11.271,16.908 27.538,17.846 48.851,2.816c50.079,-35.054 101.449,-64.82 154.054,-89.241c52.608,-24.421 104.887,-44.15 156.875,-59.179c51.958,-15.034 103.329,-26.921 154.054,-35.7c50.725,-8.742 99.25,-15.642 145.6,-20.663c70.133,-7.512 133.683,-4.696 190.692,8.454c56.983,13.15 102.687,33.525 137.15,61.059c34.433,27.566 54.158,60.762 59.179,99.57c4.991,38.842 -9.396,79.555 -43.213,122.121c-33.812,42.592 -90.175,85.484 -169.083,128.692c-78.909,43.213 -185.996,82.987 -321.263,119.3c36.313,-82.663 74.825,-158.754 115.542,-228.262c40.688,-69.517 79.204,-126.175 115.542,-170.03c6.25,-16.258 1.233,-31 -15.029,-44.154c-16.296,-13.146 -36.638,-23.475 -61.059,-30.992c-24.425,-7.516 -49.171,-11.274 -74.208,-11.274c-25.075,-0 -43.213,5.02 -54.488,15.029c-33.816,40.1 -67.629,88.304 -101.45,144.662c-33.816,56.363 -65.754,118.358 -95.816,185.996c-30.059,67.633 -57.621,139.025 -82.663,214.175c-25.071,75.15 -45.091,150.296 -60.121,225.446c-15.029,75.15 -24.129,148.742 -27.237,220.746c-3.142,72.041 1.554,139.354 14.087,201.966c0,20.021 9.396,35.7 28.18,46.971c18.791,11.271 39.75,17.525 62.937,18.784c23.163,1.233 45.092,-2.526 65.758,-11.271c20.667,-8.78 32.23,-23.188 34.755,-43.209c-17.555,-77.645 -18.788,-165.621 -3.755,-263.962c15.03,-98.309 39.45,-196.946 73.267,-295.9c151.533,-18.788 280.225,-47.588 386.079,-86.425c105.825,-38.804 191.634,-83.279 257.388,-133.388c65.754,-50.075 113.016,-103.946 141.846,-161.571c28.795,-57.591 41.945,-114.279 39.45,-170.02c-2.521,-55.717 -19.109,-108.646 -49.784,-158.754c-30.708,-50.08 -72.041,-93.001 -123.996,-128.696c-51.991,-35.696 -113.375,-62.292 -184.116,-79.846c-45.046,-11.154 -92.759,-16.729 -143.125,-16.729c-28.767,-0 -58.4,1.82 -88.9,5.458Z" style="fill:url(#_Linear2);fill-rule:nonzero;"/></svg>
